<?xml version="1.0" encoding="utf-8"?>
<!-- Generator: Adobe Illustrator 18.1.1, SVG Export Plug-In . SVG Version: 6.00 Build 0)  -->
<svg version="1.1" id="Layer_1" xmlns="http://www.w3.org/2000/svg" xmlns:xlink="http://www.w3.org/1999/xlink" x="0px" y="0px"
	 viewBox="0 0 1000 391.8" enable-background="new 0 0 1000 391.8" xml:space="preserve">
<g>
	<linearGradient id="vij-grad-ondark-text" gradientUnits="userSpaceOnUse" x1="124.816" y1="212.7509" x2="478.0298" y2="212.7509">
		<stop  offset="4.433497e-002" style="stop-color:#56C9E8"/>
		<stop  offset="0.931" style="stop-color:#265FAC"/>
	</linearGradient>
	<path fill="url(#vij-grad-ondark-text)" d="M219.7,312.5c-13.4,0-24.3-10.9-24.3-24.3v-90.8c0-3.6-3-6.6-6.6-6.6s-6.6,3-6.6,6.6l0.1,48.8
		c0,10.1-8.2,18.3-18.3,18.3h-39.3v-17.7h39.3c0.3,0,0.6-0.3,0.6-0.6v-11.4l-0.1-37.4c0-13.4,10.9-24.3,24.3-24.3
		c13.4,0,24.3,10.9,24.3,24.3v90.8c0,3.6,3,6.6,6.6,6.6s6.6-3,6.6-6.6v-65.9l0.1-4.3l0-34.1c0-13.4,10.9-24.3,24.3-24.3
		c13.4,0,24.3,10.9,24.3,24.3v50l-0.1,5.2l0,16c0,3.6,3,6.6,6.6,6.6c3.6,0,6.6-3,6.6-6.6l0-117.8c0-13.4,10.9-24.3,24.3-24.3
		s24.3,10.9,24.3,24.3v111.3l0,19.5c0,0.3,0.3,0.6,0.6,0.6H478l-11.2,17.7H337.2c-10.1,0-18.3-8.2-18.3-18.3l0-130.8
		c0-3.6-3-6.6-6.6-6.6c-3.6,0-6.6,3-6.6,6.6l0,117.8c0,13.4-10.9,24.3-24.3,24.3c-13.4,0-24.3-10.9-24.3-24.3l0.1-71.2
		c0-3.6-3-6.6-6.6-6.6s-6.6,3-6.6,6.6L244,288.2C244,301.6,233.1,312.5,219.7,312.5z"/>
	<g>
		<path fill="#2E3238" d="M455.3,163.8l-39,90.9h-22l-39-90.9h22.1l28.3,67.4l29.1-67.4H455.3z"/>
		<path fill="#2E3238" d="M465.7,136.1c0-7.1,5.8-12.8,13.6-12.8c7.8,0,13.6,5.3,13.6,12.3c0,7.5-5.6,13.3-13.6,13.3
			C471.5,148.9,465.7,143.2,465.7,136.1z M468.6,163.8h21.3v90.9h-21.3V163.8z"/>
		<path fill="#2E3238" d="M488,283.7l6.1-15.8c3.2,2.4,7.7,3.6,12.4,3.6c7.8,0,12.3-4.8,12.3-14.5v-93.1h21.3v92.6
			c0,19.9-11.4,32.5-31.7,32.5C500.6,289,492.9,287.4,488,283.7z M515.7,136.1c0-7.1,5.8-12.8,13.6-12.8s13.6,5.3,13.6,12.3
			c0,7.5-5.6,13.3-13.6,13.3C521.5,148.9,515.7,143.2,515.7,136.1z"/>
		<path fill="#2E3238" d="M565.1,136.1c0-7.1,5.8-12.8,13.6-12.8c7.8,0,13.6,5.3,13.6,12.3c0,7.5-5.6,13.3-13.6,13.3
			C570.9,148.9,565.1,143.2,565.1,136.1z M568,163.8h21.3v90.9H568V163.8z"/>
		<path fill="#2E3238" d="M617.2,226.3v-97.9h21.3v96.3c0,8.9,4.3,13.6,12.8,13.6c2.9,0,6-0.9,7.7-1.7l1,17
			c-4.1,1.5-8.5,2.2-12.8,2.2C628.3,255.9,617.2,245.2,617.2,226.3z"/>
		<path fill="#2E3238" d="M761.5,163.8v90.9h-20.3V243c-7.2,8.7-17.7,12.9-30.1,12.9c-26.6,0-46-18.4-46-46.6s19.4-46.5,46-46.5
			c11.6,0,21.8,3.9,29.1,12.1v-11.1H761.5z M740.6,209.3c0-17.4-11.6-28.4-27.1-28.4c-15.3,0-26.9,11.1-26.9,28.4
			s11.6,28.4,26.9,28.4C729,237.7,740.6,226.7,740.6,209.3z"/>
		<path fill="#2E3238" d="M879,202.7v52.1h-21.3v-49.4c0-16.2-8-24-21.6-24c-15.2,0-25.4,9.2-25.4,27.4v46h-21.3v-90.9h20.3v11.7
			c7-8.3,18-12.8,31.3-12.8C862.8,162.8,879,175.3,879,202.7z"/>
	</g>
	<g>
		<g>
			<path fill="#2E3238" d="M552.5,279.8V268h1.3v11.8H552.5z"/>
			<path fill="#2E3238" d="M557.3,279.8V268h1.3l6.2,8.5c0.5,0.6,0.7,1,0.9,1.2l0,0c0-0.4,0-0.7,0-1V268h1.3v11.8h-1.3l-6.2-8.5
				c-0.5-0.6-0.7-1-0.9-1.2l0,0c0,0.4,0,0.7,0,1v8.7H557.3z"/>
			<path fill="#2E3238" d="M578.4,268v1.2h-4.1v10.6H573v-10.6h-4.1V268H578.4z"/>
			<path fill="#2E3238" d="M581.7,278.6h6.7v1.2h-8V268h7.8v1.2h-6.5v4h6.2v1.2h-6.2V278.6z"/>
			<path fill="#2E3238" d="M592.4,278.6h6.5v1.2h-7.8V268h1.3V278.6z"/>
			<path fill="#2E3238" d="M602.3,278.6h6.5v1.2H601V268h1.3V278.6z"/>
			<path fill="#2E3238" d="M610.8,279.8V268h1.3v11.8H610.8z"/>
			<path fill="#2E3238" d="M620.4,273.4h5v4.7c-1.3,1.3-2.8,1.9-4.6,1.9c-1.8,0-3.3-0.6-4.4-1.7s-1.6-2.6-1.6-4.4
				c0-1.8,0.6-3.3,1.7-4.5c1.2-1.1,2.6-1.7,4.4-1.7c1.6,0,3,0.5,4.2,1.6l-0.8,1c-1-0.9-2.1-1.3-3.4-1.3c-1.5,0-2.7,0.5-3.5,1.4
				s-1.3,2.1-1.3,3.5c0,1.5,0.4,2.6,1.3,3.5c0.9,0.9,2,1.4,3.5,1.4c1.3,0,2.4-0.4,3.3-1.2v-3h-3.8V273.4z"/>
			<path fill="#2E3238" d="M629.5,278.6h6.7v1.2h-8V268h7.8v1.2h-6.5v4h6.2v1.2h-6.2V278.6z"/>
			<path fill="#2E3238" d="M639,279.8V268h1.3l6.2,8.5c0.5,0.6,0.7,1,0.9,1.2l0,0c0-0.4,0-0.7,0-1V268h1.3v11.8h-1.3l-6.2-8.5
				c-0.5-0.6-0.7-1-0.9-1.2l0,0c0,0.4,0,0.7,0,1v8.7H639z"/>
			<path fill="#2E3238" d="M657.4,280c-1.8,0-3.3-0.6-4.4-1.7c-1.1-1.1-1.7-2.6-1.7-4.4c0-1.8,0.6-3.3,1.7-4.4
				c1.1-1.1,2.6-1.7,4.4-1.7c1.7,0,3.1,0.6,4.2,1.7l-0.8,1c-1-0.9-2.1-1.4-3.5-1.4c-1.4,0-2.6,0.4-3.5,1.3c-0.9,0.9-1.3,2.1-1.3,3.5
				c0,1.5,0.4,2.6,1.3,3.5s2,1.4,3.5,1.4c1.4,0,2.6-0.5,3.5-1.4l0.8,1C660.6,279.5,659.1,280,657.4,280z"/>
			<path fill="#2E3238" d="M665.4,278.6h6.7v1.2h-8V268h7.8v1.2h-6.5v4h6.2v1.2h-6.2V278.6z"/>
			<path fill="#2E3238" d="M687.8,268c1.8,0,3.2,0.5,4.3,1.6c1.1,1.1,1.7,2.5,1.7,4.3c0,1.8-0.6,3.2-1.7,4.3
				c-1.1,1.1-2.5,1.6-4.3,1.6h-4.2V268H687.8z M687.8,278.6c1.4,0,2.5-0.4,3.3-1.3s1.3-2,1.3-3.4c0-1.4-0.4-2.5-1.3-3.4
				s-2-1.3-3.4-1.3h-2.9v9.3H687.8z"/>
			<path fill="#2E3238" d="M697.7,278.6h6.7v1.2h-8V268h7.8v1.2h-6.5v4h6.2v1.2h-6.2V278.6z"/>
			<path fill="#2E3238" d="M715,268v1.2H711v10.6h-1.3v-10.6h-4.1V268H715z"/>
			<path fill="#2E3238" d="M718.3,278.6h6.7v1.2h-8V268h7.8v1.2h-6.5v4h6.2v1.2h-6.2V278.6z"/>
			<path fill="#2E3238" d="M733.1,280c-1.8,0-3.3-0.6-4.4-1.7c-1.1-1.1-1.7-2.6-1.7-4.4c0-1.8,0.6-3.3,1.7-4.4
				c1.1-1.1,2.6-1.7,4.4-1.7c1.7,0,3.1,0.6,4.2,1.7l-0.8,1c-1-0.9-2.1-1.4-3.5-1.4c-1.4,0-2.6,0.4-3.5,1.3c-0.9,0.9-1.3,2.1-1.3,3.5
				c0,1.5,0.4,2.6,1.3,3.5s2,1.4,3.5,1.4c1.4,0,2.6-0.5,3.5-1.4l0.8,1C736.3,279.5,734.8,280,733.1,280z"/>
			<path fill="#2E3238" d="M747.7,268v1.2h-4.1v10.6h-1.3v-10.6h-4.1V268H747.7z"/>
			<path fill="#2E3238" d="M749.7,279.8V268h1.3v11.8H749.7z"/>
			<path fill="#2E3238" d="M759.6,280c-1.8,0-3.2-0.6-4.3-1.7c-1.1-1.1-1.7-2.6-1.7-4.4c0-1.8,0.6-3.3,1.7-4.4
				c1.1-1.1,2.6-1.7,4.4-1.7c1.8,0,3.2,0.6,4.3,1.7c1.1,1.1,1.7,2.6,1.7,4.4c0,1.8-0.6,3.3-1.7,4.4C762.9,279.5,761.4,280,759.6,280
				z M756.3,277.4c0.9,0.9,2,1.4,3.4,1.4s2.5-0.5,3.4-1.4c0.9-0.9,1.3-2.1,1.3-3.5c0-1.5-0.4-2.6-1.3-3.6c-0.9-0.9-2-1.4-3.4-1.4
				c-1.4,0-2.5,0.5-3.4,1.4c-0.9,0.9-1.3,2.1-1.3,3.5C755,275.3,755.4,276.5,756.3,277.4z"/>
			<path fill="#2E3238" d="M768.3,279.8V268h1.3l6.2,8.5c0.5,0.6,0.7,1,0.9,1.2l0,0c0-0.4,0-0.7,0-1V268h1.3v11.8h-1.3l-6.2-8.5
				c-0.5-0.6-0.7-1-0.9-1.2l0,0c0,0.4,0,0.7,0,1v8.7H768.3z"/>
			<path fill="#2E3238" d="M797.5,279.8l-3.8-4.3h-2.3v4.3h-1.3V268h4.7c1.2,0,2.2,0.3,2.9,1c0.7,0.7,1.1,1.6,1.1,2.7
				c0,1-0.3,1.9-0.9,2.6s-1.5,1.1-2.5,1.2l3.9,4.3H797.5z M797.4,271.8c0-0.8-0.2-1.4-0.7-1.9c-0.5-0.5-1.1-0.7-2-0.7h-3.3v5.1h3.3
				c0.8,0,1.5-0.2,2-0.7C797.2,273.2,797.4,272.5,797.4,271.8z"/>
			<path fill="#2E3238" d="M802.9,278.6h6.7v1.2h-8V268h7.8v1.2h-6.5v4h6.2v1.2h-6.2V278.6z"/>
			<path fill="#2E3238" d="M815.9,280c-1.7,0-3.2-0.5-4.4-1.5l0.7-1c1.2,0.9,2.4,1.3,3.8,1.3c0.9,0,1.6-0.2,2.2-0.6
				c0.6-0.4,0.9-0.9,0.9-1.6c0-0.6-0.2-1.1-0.7-1.5s-1.3-0.6-2.5-0.9c-1.4-0.3-2.4-0.6-3.1-1.1c-0.6-0.5-0.9-1.2-0.9-2.1
				c0-1,0.4-1.8,1.2-2.4c0.8-0.6,1.8-0.9,3-0.9c1.4,0,2.7,0.4,3.8,1.2l-0.7,1c-0.9-0.6-1.9-0.9-3.1-0.9c-0.8,0-1.5,0.2-2.1,0.5
				c-0.5,0.4-0.8,0.9-0.8,1.5c0,0.6,0.2,1,0.7,1.3c0.5,0.3,1.3,0.6,2.4,0.8c1.5,0.3,2.5,0.7,3.2,1.2c0.6,0.5,0.9,1.3,0.9,2.2
				c0,1.1-0.4,1.9-1.2,2.5C818.2,279.7,817.2,280,815.9,280z"/>
			<path fill="#2E3238" d="M827.5,268c1.3,0,2.3,0.4,3,1.1c0.7,0.8,1.1,1.7,1.1,2.8c0,1.1-0.4,2.1-1.1,2.8c-0.7,0.8-1.7,1.1-3,1.1
				H824v3.9h-1.3V268H827.5z M827.4,274.7c0.9,0,1.6-0.3,2.1-0.8c0.5-0.5,0.7-1.2,0.7-2c0-0.8-0.2-1.5-0.7-2
				c-0.5-0.5-1.2-0.8-2.1-0.8H824v5.5H827.4z"/>
			<path fill="#2E3238" d="M839,280c-1.8,0-3.2-0.6-4.3-1.7c-1.1-1.1-1.7-2.6-1.7-4.4c0-1.8,0.6-3.3,1.7-4.4
				c1.1-1.1,2.6-1.7,4.4-1.7c1.8,0,3.2,0.6,4.3,1.7c1.1,1.1,1.7,2.6,1.7,4.4c0,1.8-0.6,3.3-1.7,4.4C842.2,279.5,840.8,280,839,280z
				 M835.6,277.4c0.9,0.9,2,1.4,3.4,1.4s2.5-0.5,3.4-1.4c0.9-0.9,1.3-2.1,1.3-3.5c0-1.5-0.4-2.6-1.3-3.6c-0.9-0.9-2-1.4-3.4-1.4
				c-1.4,0-2.5,0.5-3.4,1.4c-0.9,0.9-1.3,2.1-1.3,3.5C834.3,275.3,834.8,276.5,835.6,277.4z"/>
			<path fill="#2E3238" d="M847.6,279.8V268h1.3l6.2,8.5c0.5,0.6,0.7,1,0.9,1.2l0,0c0-0.4,0-0.7,0-1V268h1.3v11.8H856l-6.2-8.5
				c-0.5-0.6-0.7-1-0.9-1.2l0,0c0,0.4,0,0.7,0,1v8.7H847.6z"/>
			<path fill="#2E3238" d="M864.3,280c-1.7,0-3.2-0.5-4.4-1.5l0.7-1c1.2,0.9,2.4,1.3,3.8,1.3c0.9,0,1.6-0.2,2.2-0.6
				c0.6-0.4,0.9-0.9,0.9-1.6c0-0.6-0.2-1.1-0.7-1.5s-1.3-0.6-2.5-0.9c-1.4-0.3-2.4-0.6-3.1-1.1c-0.6-0.5-0.9-1.2-0.9-2.1
				c0-1,0.4-1.8,1.2-2.4c0.8-0.6,1.8-0.9,3-0.9c1.4,0,2.7,0.4,3.8,1.2l-0.7,1c-0.9-0.6-1.9-0.9-3.1-0.9c-0.8,0-1.5,0.2-2.1,0.5
				c-0.5,0.4-0.8,0.9-0.8,1.5c0,0.6,0.2,1,0.7,1.3c0.5,0.3,1.3,0.6,2.4,0.8c1.5,0.3,2.5,0.7,3.2,1.2c0.6,0.5,0.9,1.3,0.9,2.2
				c0,1.1-0.4,1.9-1.2,2.5C866.7,279.7,865.6,280,864.3,280z"/>
			<path fill="#2E3238" d="M872.4,278.6h6.7v1.2h-8V268h7.8v1.2h-6.5v4h6.2v1.2h-6.2V278.6z"/>
		</g>
		<circle fill="#2E3238" cx="677.4" cy="273.4" r="1.7"/>
		<circle fill="#2E3238" cx="783.6" cy="273.4" r="1.7"/>
	</g>
</g>
</svg>
